<svg width="800" height="1024" viewBox="0 0 800 1024" fill="none" xmlns="http://www.w3.org/2000/svg">
<g>
<path d="M0 0H587.781V1024H0V0Z" fill="#fff"/>
<path d="M765.115 0L777.781 42.6667C790.448 85.3333 815.782 170.667 786.252 256C756.406 341.333 672.489 426.667 659.585 512C647.156 597.333 705.739 682.667 739.781 768C773.823 853.333 781.74 938.667 786.252 981.333L790.448 1024H587.781L587.781 981.333C587.781 938.667 587.781 853.333 587.781 768C587.781 682.667 587.781 597.333 587.781 512C587.781 426.667 587.781 341.333 587.781 256C587.781 170.667 587.781 85.3333 587.781 42.6667L587.781 0H765.115Z" fill="#fff"/>
</g>
</svg>
